<svg data-v-d3f97b9e="" xmlns="http://www.w3.org/2000/svg" viewBox="0 0 253 90"><!----><!----><!----><g data-v-d3f97b9e="" id="9aefb4be-f4b1-4ca4-a7e9-909b14f4e349" fill="black" transform="matrix(6.060606294135134,0,0,6.060606294135134,154.04186034532802,-23.757576181722975)"><path d="M6.93 4.68C6.34 4.17 5.46 3.92 4.30 3.92L1.89 3.92L0.70 3.92L0.70 4.19C0.70 4.34 0.80 4.42 0.98 4.44L1.12 4.44C1.19 4.44 1.29 4.45 1.43 4.45C1.57 4.45 1.72 4.47 1.89 4.47L1.89 13.26C1.72 13.26 1.57 13.27 1.43 13.27C1.29 13.27 1.19 13.29 1.12 13.29L0.98 13.29C0.80 13.30 0.70 13.38 0.70 13.54L0.70 13.82L1.89 13.82L2.60 13.82L3.78 13.82L3.78 13.54C3.78 13.38 3.68 13.30 3.50 13.29L3.37 13.29C3.30 13.29 3.19 13.27 3.05 13.27C2.91 13.27 2.77 13.26 2.60 13.26L2.60 9.83L4.30 9.83C4.84 9.83 5.33 9.74 5.77 9.60C6.20 9.45 6.57 9.25 6.87 8.99C7.18 8.72 7.42 8.41 7.57 8.05C7.74 7.69 7.81 7.29 7.81 6.86C7.81 5.92 7.52 5.18 6.93 4.68ZM6.90 7.81C6.78 8.11 6.59 8.36 6.36 8.57C6.12 8.78 5.82 8.95 5.47 9.07C5.12 9.20 4.73 9.25 4.30 9.25L2.60 9.25L2.60 4.48L4.30 4.48C5.22 4.48 5.92 4.69 6.40 5.10C6.86 5.50 7.10 6.09 7.10 6.85C7.10 7.20 7.03 7.52 6.90 7.81ZM16.13 3.92L15.78 3.92L10.19 3.92L9.00 3.92L9.00 4.19C9.00 4.34 9.10 4.42 9.28 4.44L9.42 4.44C9.49 4.44 9.59 4.45 9.73 4.45C9.87 4.45 10.02 4.47 10.19 4.47L10.19 13.26C10.02 13.26 9.87 13.27 9.73 13.27C9.59 13.27 9.49 13.29 9.42 13.29L9.28 13.29C9.10 13.30 9.00 13.38 9.00 13.54L9.00 13.82L10.19 13.82L10.91 13.82L12.08 13.82L12.08 13.54C12.08 13.38 12.00 13.30 11.82 13.29L11.68 13.29C11.61 13.29 11.51 13.27 11.37 13.27C11.23 13.27 11.07 13.26 10.91 13.26L10.91 9.27L14.60 9.27L14.60 8.67L10.91 8.67L10.91 4.51L15.51 4.51C15.54 5.18 15.57 5.56 15.57 5.63C15.58 5.85 15.68 5.96 15.88 5.96L16.21 5.96L16.21 3.92Z"></path></g><!----><g data-v-d3f97b9e="" id="892f282c-8a09-46b2-83f6-0f3fb66d16a4" transform="matrix(1.536491857452024,0,0,1.536491857452024,-6.824595664021459,-31.09197079006381)" stroke="none" fill="black"><switch><g><path d="M62.8 39v-8.9c0-.8-.7-1.5-1.5-1.5h-5.8v11.9h5.8c.8 0 1.5-.7 1.5-1.5zm30.7-10.4H67.2c-.8 0-1.5.7-1.5 1.5V39c0 .8.7 1.5 1.5 1.5h26.3c.8 0 1.5-.7 1.5-1.5v-8.9c0-.8-.7-1.5-1.5-1.5zM61.3 58.4H52c-1.7 4.3-4.1 8.3-7.1 11.9h16.3c.8 0 1.5-.7 1.5-1.5V60c.1-.9-.6-1.6-1.4-1.6zm15.3-3c.8 0 1.5-.7 1.5-1.5V45c0-.8-.7-1.5-1.5-1.5H55.4c-.2 4.1-1 8.1-2.2 11.9h23.4zm16.9-11.9H82.7c-.8 0-1.5.7-1.5 1.5v8.9c0 .8.7 1.5 1.5 1.5h10.8c.8 0 1.5-.7 1.5-1.5V45c0-.8-.7-1.5-1.5-1.5zm0 14.9H67.2c-.8 0-1.5.7-1.5 1.5v8.8c0 .8.7 1.5 1.5 1.5h26.3c.8 0 1.5-.7 1.5-1.5V60c0-.9-.7-1.6-1.5-1.6zM36.1 38.6c-1.9.4-4 .6-6.2.7v6.5H37c0-2.6-.3-5-.9-7.2zM35.7 56c-1.8-.4-3.7-.6-5.7-.6v7.8c1.7-.4 3.4-2 4.7-4.6.3-.8.7-1.7 1-2.6zm1.4-8.7H30v6.5c2.2 0 4.2.3 6.2.7.5-2.2.8-4.6.9-7.2zm4.7-10.7c-1.3.6-2.7 1.2-4.2 1.6.6 2.3 1 4.9 1 7.5h7.1c-.2-3.5-1.4-6.8-3.4-9.4-.1.1-.3.2-.5.3zm-7.2-2.1c-1.3-2.6-3-4.2-4.7-4.6v7.8c2 0 3.9-.3 5.7-.6-.2-1-.6-1.8-1-2.6zm2.6 2.2c1.4-.4 2.8-.9 3.9-1.5.1 0 .1-.1.2-.1-2-2.2-4.6-3.8-7.6-4.7.8.9 1.6 2 2.3 3.3.5 1 .9 2 1.2 3zm0 19.7c-.3 1-.7 2-1.2 2.9-.7 1.3-1.4 2.5-2.3 3.3 2.9-.8 5.5-2.5 7.6-4.7-.1 0-.1-.1-.2-.1-1.1-.5-2.5-1-3.9-1.4zm1.5-9.1c-.1 2.7-.4 5.2-1 7.5 1.5.4 2.9.9 4.2 1.6.2.1.4.2.5.3 2-2.6 3.3-5.9 3.4-9.4h-7.1zM22.6 56c.3.9.7 1.8 1 2.5 1.3 2.6 3 4.2 4.7 4.6v-7.8c-1.9.1-3.9.3-5.7.7zm-1.5.4c-1.4.4-2.8.9-3.9 1.5-.1 0-.1.1-.2.1 2 2.2 4.6 3.8 7.6 4.7-.8-.9-1.6-2-2.3-3.3-.5-1-.9-2-1.2-3zm-.4-18.2c-1.5-.4-2.9-.9-4.2-1.6-.2-.1-.4-.2-.5-.3-2 2.6-3.3 5.9-3.4 9.4h7.1c0-2.6.3-5.2 1-7.5zm-1.1 9.1h-7.1c.2 3.5 1.4 6.8 3.4 9.4.2-.1.3-.2.5-.3 1.3-.6 2.7-1.2 4.2-1.6-.6-2.3-.9-4.8-1-7.5zm33.6-21.2v-.2c-.1-.6-.6-1.2-1.2-1.3l-7.4-1.9c-10.2-2.7-20.9-2.7-31.1 0l-7.4 1.9c-.6.2-1.1.8-1.1 1.5v15.4C5 57.6 14 72 28.4 79.1c.5.2 1 .2 1.5 0C44.3 72 53.2 57.6 53.2 41.5V26.1zm-9.5 31.4c-.3.4-.7.8-1 1.2-.2.2-.4.5-.7.7-3.7 3.7-8.7 5.6-14 5.3-4.7-.3-9.2-2.5-12.4-6v-.1c-.4-.4-.7-.8-1-1.2-2.4-3.2-3.7-7-3.7-11s1.3-7.9 3.7-11c.3-.4.6-.8 1-1.2.2-.2.4-.5.7-.7 3.4-3.5 8-5.4 12.9-5.4s9.5 1.9 12.9 5.4l.7.7c.4.4.7.8 1 1.2 2.4 3.2 3.7 7 3.7 11-.1 4.2-1.4 8-3.8 11.1zM21.1 36.7c.3-1 .7-2 1.2-2.9.7-1.3 1.4-2.5 2.3-3.3-2.9.8-5.5 2.5-7.6 4.7.1 0 .1.1.2.1 1.1.5 2.5 1 3.9 1.4zm.1 10.6c.1 2.5.4 5 1 7.2 1.9-.4 4-.6 6.2-.7v-6.5h-7.2zm2.5-12.8c-.4.8-.7 1.6-1 2.5 1.8.4 3.7.6 5.7.6v-7.8c-1.8.5-3.4 2.1-4.7 4.7zm-1.5 4.1c-.6 2.2-.9 4.6-1 7.2h7.1v-6.5c-2.1-.1-4.2-.3-6.1-.7z"></path></g></switch></g><!----><g data-v-d3f97b9e="" id="8f7b9dfa-3afb-4903-a000-d28d1c3d6dd1" fill="black" transform="matrix(3.5255508510296028,0,0,3.5255508510296028,156.45099366090332,48.75349438379554)"><path d="M0.52 3.51C0.52 3.75 0.60 3.77 0.77 3.77L1.30 3.77C1.36 3.77 1.36 4.12 1.36 4.55C1.36 5.66 1.34 8.96 1.34 9.42C1.34 11.13 1.60 12.80 4.45 12.80C5.53 12.80 6.69 12.38 7.35 12.00C7.60 11.86 7.90 11.72 7.98 11.72C8.25 11.72 8.51 12.74 8.85 12.74C9.17 12.74 9.18 12.35 9.18 12.25C9.18 11.96 9.24 10.08 9.28 8.16C9.34 6.12 9.32 3.77 9.44 3.77L9.76 3.77C9.98 3.77 10.05 3.75 10.05 3.56C10.05 3.32 10.01 3.26 9.81 3.26C9.67 3.26 9.14 3.30 8.72 3.30C8.30 3.30 7.50 3.26 7.28 3.26C7.10 3.26 7 3.28 7 3.51C7 3.75 7.11 3.77 7.28 3.77L7.98 3.77C8.05 3.77 8.06 4.30 8.06 4.87L8.06 9.14C8.06 11.19 8.06 11.12 7.73 11.34C7.34 11.61 6.52 12.08 5.35 12.08C3.37 12.08 2.58 11.17 2.58 9.41C2.58 8.82 2.65 3.77 2.76 3.77L3.67 3.77C3.89 3.77 3.93 3.75 3.93 3.56C3.93 3.32 3.92 3.26 3.72 3.26C3.40 3.26 2.52 3.30 2.10 3.30C1.68 3.30 0.99 3.26 0.77 3.26C0.59 3.26 0.52 3.28 0.52 3.51ZM17.95 12.39C17.95 12.63 17.99 12.68 18.19 12.68C18.51 12.68 19.26 12.64 19.98 12.64C20.64 12.64 21.43 12.68 21.66 12.68C21.83 12.68 21.85 12.61 21.85 12.40C21.85 12.24 21.83 12.18 21.66 12.18L20.69 12.18C20.59 12.18 20.57 9.55 20.57 7.76L20.57 5.87C20.57 5.14 20.59 3.70 20.69 3.70L21.60 3.70C21.83 3.70 21.85 3.68 21.85 3.49C21.85 3.25 21.83 3.19 21.66 3.19C21.34 3.19 20.66 3.23 20.01 3.23C19.19 3.23 18.48 3.19 18.26 3.19C18.07 3.19 18.00 3.21 18.00 3.44C18.00 3.68 18.09 3.70 18.26 3.70L19.18 3.70C19.22 3.70 19.29 4.79 19.29 5.71L19.29 7.08C19.29 8.92 19.28 12.18 19.17 12.18L18.24 12.18C18.02 12.18 17.95 12.19 17.95 12.39Z"></path></g></svg>