<svg data-v-d3f97b9e="" xmlns="http://www.w3.org/2000/svg" viewBox="0 0 92.18951926212316 60"><!----><!----><!----><!----><g data-v-d3f97b9e="" id="5bcffab5-a602-4039-a3d7-7f30f9e284f8" transform="matrix(1.024327904968016,0,0,1.024327904968016,-5.121633591967878,-21.177982561214414)" stroke="none" fill="black"><switch><g><path d="M62.8 39v-8.9c0-.8-.7-1.5-1.5-1.5h-5.8v11.9h5.8c.8 0 1.5-.7 1.5-1.5zm30.7-10.4H67.2c-.8 0-1.5.7-1.5 1.5V39c0 .8.7 1.5 1.5 1.5h26.3c.8 0 1.5-.7 1.5-1.5v-8.9c0-.8-.7-1.5-1.5-1.5zM61.3 58.4H52c-1.7 4.3-4.1 8.3-7.1 11.9h16.3c.8 0 1.5-.7 1.5-1.5V60c.1-.9-.6-1.6-1.4-1.6zm15.3-3c.8 0 1.5-.7 1.5-1.5V45c0-.8-.7-1.5-1.5-1.5H55.4c-.2 4.1-1 8.1-2.2 11.9h23.4zm16.9-11.9H82.7c-.8 0-1.5.7-1.5 1.5v8.9c0 .8.7 1.5 1.5 1.5h10.8c.8 0 1.5-.7 1.5-1.5V45c0-.8-.7-1.5-1.5-1.5zm0 14.9H67.2c-.8 0-1.5.7-1.5 1.5v8.8c0 .8.7 1.5 1.5 1.5h26.3c.8 0 1.5-.7 1.5-1.5V60c0-.9-.7-1.6-1.5-1.6zM36.1 38.6c-1.9.4-4 .6-6.2.7v6.5H37c0-2.6-.3-5-.9-7.2zM35.7 56c-1.8-.4-3.7-.6-5.7-.6v7.8c1.7-.4 3.4-2 4.7-4.6.3-.8.7-1.7 1-2.6zm1.4-8.7H30v6.5c2.2 0 4.2.3 6.2.7.5-2.2.8-4.6.9-7.2zm4.7-10.7c-1.3.6-2.7 1.2-4.2 1.6.6 2.3 1 4.9 1 7.5h7.1c-.2-3.5-1.4-6.8-3.4-9.4-.1.1-.3.2-.5.3zm-7.2-2.1c-1.3-2.6-3-4.2-4.7-4.6v7.8c2 0 3.9-.3 5.7-.6-.2-1-.6-1.8-1-2.6zm2.6 2.2c1.4-.4 2.8-.9 3.9-1.5.1 0 .1-.1.2-.1-2-2.2-4.6-3.8-7.6-4.7.8.9 1.6 2 2.3 3.3.5 1 .9 2 1.2 3zm0 19.7c-.3 1-.7 2-1.2 2.9-.7 1.3-1.4 2.5-2.3 3.3 2.9-.8 5.5-2.5 7.6-4.7-.1 0-.1-.1-.2-.1-1.1-.5-2.5-1-3.9-1.4zm1.5-9.1c-.1 2.7-.4 5.2-1 7.5 1.5.4 2.9.9 4.2 1.6.2.1.4.2.5.3 2-2.6 3.3-5.9 3.4-9.4h-7.1zM22.6 56c.3.9.7 1.8 1 2.5 1.3 2.6 3 4.2 4.7 4.6v-7.8c-1.9.1-3.9.3-5.7.7zm-1.5.4c-1.4.4-2.8.9-3.9 1.5-.1 0-.1.1-.2.1 2 2.2 4.6 3.8 7.6 4.7-.8-.9-1.6-2-2.3-3.3-.5-1-.9-2-1.2-3zm-.4-18.2c-1.5-.4-2.9-.9-4.2-1.6-.2-.1-.4-.2-.5-.3-2 2.6-3.3 5.9-3.4 9.4h7.1c0-2.6.3-5.2 1-7.5zm-1.1 9.1h-7.1c.2 3.5 1.4 6.8 3.4 9.4.2-.1.3-.2.5-.3 1.3-.6 2.7-1.2 4.2-1.6-.6-2.3-.9-4.8-1-7.5zm33.6-21.2v-.2c-.1-.6-.6-1.2-1.2-1.3l-7.4-1.9c-10.2-2.7-20.9-2.7-31.1 0l-7.4 1.9c-.6.2-1.1.8-1.1 1.5v15.4C5 57.6 14 72 28.4 79.1c.5.2 1 .2 1.5 0C44.3 72 53.2 57.6 53.2 41.5V26.1zm-9.5 31.4c-.3.4-.7.8-1 1.2-.2.2-.4.5-.7.7-3.7 3.7-8.7 5.6-14 5.3-4.7-.3-9.2-2.5-12.4-6v-.1c-.4-.4-.7-.8-1-1.2-2.4-3.2-3.7-7-3.7-11s1.3-7.9 3.7-11c.3-.4.6-.8 1-1.2.2-.2.4-.5.7-.7 3.4-3.5 8-5.4 12.9-5.4s9.5 1.9 12.9 5.4l.7.7c.4.4.7.8 1 1.2 2.4 3.2 3.7 7 3.7 11-.1 4.2-1.4 8-3.8 11.1zM21.1 36.7c.3-1 .7-2 1.2-2.9.7-1.3 1.4-2.5 2.3-3.3-2.9.8-5.5 2.5-7.6 4.7.1 0 .1.1.2.1 1.1.5 2.5 1 3.9 1.4zm.1 10.6c.1 2.5.4 5 1 7.2 1.9-.4 4-.6 6.2-.7v-6.5h-7.2zm2.5-12.8c-.4.8-.7 1.6-1 2.5 1.8.4 3.7.6 5.7.6v-7.8c-1.8.5-3.4 2.1-4.7 4.7zm-1.5 4.1c-.6 2.2-.9 4.6-1 7.2h7.1v-6.5c-2.1-.1-4.2-.3-6.1-.7z"></path></g></switch></g><!----></svg>